<svg width="45" height="45" viewBox="0 0 45 45" fill="none" xmlns="http://www.w3.org/2000/svg">
<g clip-path="url(#clip0_4334_91)">
<path d="M43.5938 0.703125H1.40625C1.21977 0.703125 1.04093 0.777204 0.909066 0.909066C0.777204 1.04093 0.703125 1.21977 0.703125 1.40625V36.5625C0.703217 38.3273 1.30684 40.039 2.41381 41.4135C3.52077 42.7879 5.06449 43.7425 6.78872 44.1187C8.51296 44.4949 10.314 44.2701 11.8929 43.4817C13.4718 42.6933 14.7335 41.3886 15.4688 39.7842C16.0857 41.1306 17.0763 42.2715 18.3227 43.0714C19.5691 43.8713 21.019 44.2965 22.5 44.2965C23.981 44.2965 25.4309 43.8713 26.6773 43.0714C27.9237 42.2715 28.9143 41.1306 29.5312 39.7842C30.2665 41.3886 31.5282 42.6933 33.1071 43.4817C34.686 44.2701 36.487 44.4949 38.2113 44.1187C39.9355 43.7425 41.4792 42.7879 42.5862 41.4135C43.6932 40.039 44.2968 38.3273 44.2969 36.5625V1.40625C44.2969 1.21977 44.2228 1.04093 44.0909 0.909066C43.9591 0.777204 43.7802 0.703125 43.5938 0.703125ZM14.7656 36.5625C14.7656 38.2408 14.0989 39.8504 12.9122 41.0372C11.7254 42.2239 10.1158 42.8906 8.4375 42.8906C6.75918 42.8906 5.14959 42.2239 3.96284 41.0372C2.77609 39.8504 2.10938 38.2408 2.10938 36.5625V22.7145C2.82051 23.7334 3.7672 24.5656 4.86894 25.1402C5.97069 25.7149 7.19491 26.0149 8.4375 26.0149C9.68009 26.0149 10.9043 25.7149 12.0061 25.1402C13.1078 24.5656 14.0545 23.7334 14.7656 22.7145V36.5625ZM14.7656 18.2813C14.7656 19.9596 14.0989 21.5692 12.9122 22.7559C11.7254 23.9427 10.1158 24.6094 8.4375 24.6094C6.75918 24.6094 5.14959 23.9427 3.96284 22.7559C2.77609 21.5692 2.10938 19.9596 2.10938 18.2813V2.10938H14.7656V18.2813ZM28.8281 36.5625C28.8281 38.2408 28.1614 39.8504 26.9747 41.0372C25.7879 42.2239 24.1783 42.8906 22.5 42.8906C20.8217 42.8906 19.2121 42.2239 18.0253 41.0372C16.8386 39.8504 16.1719 38.2408 16.1719 36.5625V22.7159C16.8831 23.7347 17.8298 24.5668 18.9316 25.1413C20.0333 25.7158 21.2575 26.0158 22.5 26.0158C23.7425 26.0158 24.9667 25.7158 26.0684 25.1413C27.1702 24.5668 28.1169 23.7347 28.8281 22.7159V36.5625ZM28.8281 18.2813C28.8281 19.9596 28.1614 21.5692 26.9747 22.7559C25.7879 23.9427 24.1783 24.6094 22.5 24.6094C20.8217 24.6094 19.2121 23.9427 18.0253 22.7559C16.8386 21.5692 16.1719 19.9596 16.1719 18.2813V2.10938H28.8281V18.2813ZM42.8906 36.5625C42.8906 38.2408 42.2239 39.8504 41.0372 41.0372C39.8504 42.2239 38.2408 42.8906 36.5625 42.8906C34.8842 42.8906 33.2746 42.2239 32.0878 41.0372C30.9011 39.8504 30.2344 38.2408 30.2344 36.5625V22.7159C30.9455 23.7348 31.8922 24.567 32.9939 25.1417C34.0957 25.7163 35.3199 26.0163 36.5625 26.0163C37.8051 26.0163 39.0293 25.7163 40.1311 25.1417C41.2328 24.567 42.1795 23.7348 42.8906 22.7159V36.5625ZM42.8906 18.2813C42.8906 19.9596 42.2239 21.5692 41.0372 22.7559C39.8504 23.9427 38.2408 24.6094 36.5625 24.6094C34.8842 24.6094 33.2746 23.9427 32.0878 22.7559C30.9011 21.5692 30.2344 19.9596 30.2344 18.2813V2.10938H42.8906V18.2813Z" fill="#151422"/>
</g>
<defs>
<clipPath id="clip0_4334_91">
<rect width="45" height="45" fill="white"/>
</clipPath>
</defs>
</svg>
