<svg width="45" height="45" viewBox="0 0 45 45" fill="none" xmlns="http://www.w3.org/2000/svg">
<path d="M43.5948 8.4375H18.9854C18.8823 8.43754 18.7806 8.46023 18.6872 8.50397C18.5939 8.54772 18.5114 8.61144 18.4454 8.69062L14.9298 12.9094C14.8443 13.012 14.7898 13.1369 14.7727 13.2694C14.7556 13.4019 14.7766 13.5366 14.8333 13.6576C14.8899 13.7786 14.9799 13.8809 15.0926 13.9526C15.2053 14.0243 15.3362 14.0624 15.4698 14.0625H17.9448L0.858137 35.4199C0.760721 35.5412 0.706252 35.6913 0.703256 35.8468C0.700259 36.0023 0.748904 36.1544 0.841577 36.2793C0.93425 36.4042 1.06572 36.4948 1.21541 36.5371C1.3651 36.5793 1.52456 36.5707 1.66884 36.5126L4.75345 35.2786L5.83204 36.3565C5.92933 36.4539 6.05308 36.5207 6.18795 36.5484C6.32282 36.5762 6.46286 36.5637 6.59072 36.5126L9.67532 35.2786L10.7539 36.3565C10.8512 36.4539 10.975 36.5207 11.1098 36.5484C11.2447 36.5762 11.3847 36.5637 11.5126 36.5126L14.5972 35.2786L15.6758 36.3565C15.7731 36.4539 15.8968 36.5207 16.0317 36.5484C16.1666 36.5762 16.3066 36.5637 16.4345 36.5126L19.5191 35.2786L20.5977 36.3565C20.6676 36.4264 20.7514 36.4808 20.8438 36.5162C20.9362 36.5515 21.0349 36.5669 21.1337 36.5615C21.2324 36.5561 21.3289 36.5298 21.4168 36.4846C21.5047 36.4393 21.5821 36.376 21.6439 36.2988L23.683 33.75H43.5948C43.7813 33.75 43.9601 33.6759 44.092 33.5441C44.2238 33.4122 44.2979 33.2334 44.2979 33.0469V9.14062C44.2979 8.95414 44.2238 8.7753 44.092 8.64344C43.9601 8.51158 43.7813 8.4375 43.5948 8.4375ZM6.27079 34.8047L5.42001 33.9539C5.32273 33.8565 5.19898 33.7897 5.06411 33.762C4.92924 33.7342 4.78919 33.7467 4.66134 33.7978L3.62212 34.2141L19.7448 14.0625H22.8667L6.27079 34.8047ZM11.1927 34.8047L10.3419 33.9539C10.2446 33.8565 10.1209 33.7897 9.98598 33.762C9.85111 33.7342 9.71107 33.7467 9.58322 33.7978L8.5447 34.2134L24.6667 14.0625H27.7885L11.1927 34.8047ZM16.1145 34.8047L15.2638 33.9539C15.1665 33.8565 15.0427 33.7897 14.9079 33.762C14.773 33.7342 14.6329 33.7467 14.5051 33.7978L13.4666 34.2134L29.5885 14.0625H32.7104L16.1145 34.8047ZM21.0364 34.8047L20.1856 33.9539C20.0884 33.8565 19.9646 33.7897 19.8297 33.762C19.6949 33.7342 19.5548 33.7467 19.427 33.7978L18.3884 34.2134L34.5104 14.0625H37.6323L21.0364 34.8047ZM32.3497 22.9148L33.3404 21.6752L40.0792 28.4161V29.5312H38.964L32.3497 22.9148ZM36.9756 29.5312H27.0615L31.4687 24.0216L36.9756 29.5312ZM34.2242 20.5727L39.4323 14.0625H40.0792V26.4277L34.2242 20.5727ZM42.8917 32.3438H24.808L25.933 30.9375H40.7823C40.9688 30.9375 41.1476 30.8634 41.2795 30.7316C41.4113 30.5997 41.4854 30.4209 41.4854 30.2344V14.0625H42.8917V32.3438ZM42.8917 12.6562H16.9709L19.3145 9.84375H42.8917V12.6562Z" fill="#151422"/>
</svg>
