<svg width="45" height="45" viewBox="0 0 45 45" fill="none" xmlns="http://www.w3.org/2000/svg">
<path d="M43.5938 32.7552V28.8276C43.5938 28.7221 43.5701 28.618 43.5245 28.523C43.4788 28.4279 43.4124 28.3444 43.3301 28.2784L40.0781 25.6776V24.6088C40.0781 24.4875 40.0467 24.3683 39.9869 24.2627C39.9272 24.1571 39.8411 24.0687 39.7371 24.0063L36.5625 22.1015V21.0932C36.5625 20.9719 36.5311 20.8526 36.4713 20.747C36.4115 20.6414 36.3255 20.5531 36.2215 20.4906L33.0469 18.5859V17.5776C33.0469 17.4563 33.0154 17.337 32.9557 17.2314C32.8959 17.1258 32.8099 17.0375 32.7059 16.975L29.5312 15.0702V14.062C29.5312 13.902 29.4767 13.7469 29.3766 13.6221C29.2765 13.4973 29.1368 13.4104 28.9807 13.3757L27.4219 13.0291V10.5463C27.4219 10.4306 27.3933 10.3167 27.3388 10.2146C27.2842 10.1126 27.2053 10.0256 27.109 9.96134L25.2851 8.74493C25.1906 8.0735 24.8568 7.45878 24.345 7.01398C23.8333 6.56917 23.178 6.32422 22.5 6.32422C21.822 6.32422 21.1667 6.56917 20.655 7.01398C20.1432 7.45878 19.8094 8.0735 19.7149 8.74493L17.891 9.96134C17.7947 10.0256 17.7158 10.1126 17.6612 10.2146C17.6067 10.3167 17.5781 10.4306 17.5781 10.5463V13.0291L16.0193 13.3757C15.8632 13.4104 15.7235 13.4973 15.6234 13.6221C15.5233 13.7469 15.4688 13.902 15.4688 14.062V15.0702L12.2941 16.975C12.1901 17.0375 12.1041 17.1258 12.0443 17.2314C11.9846 17.337 11.9531 17.4563 11.9531 17.5776V18.5859L8.77852 20.4906C8.67452 20.5531 8.58845 20.6414 8.5287 20.747C8.46894 20.8526 8.43752 20.9719 8.4375 21.0932V22.1015L5.26289 24.0063C5.15889 24.0687 5.07283 24.1571 5.01307 24.2627C4.95332 24.3683 4.9219 24.4875 4.92188 24.6088V25.6776L1.66992 28.2792C1.5877 28.345 1.52132 28.4284 1.47568 28.5234C1.43004 28.6183 1.40632 28.7223 1.40625 28.8276V32.7552L0.909141 33.2523C0.77727 33.3842 0.703165 33.563 0.703125 33.7495V37.9682C0.703155 38.1073 0.744408 38.2432 0.821671 38.3588C0.898933 38.4744 1.00874 38.5645 1.1372 38.6177C1.26566 38.6709 1.40701 38.6848 1.54338 38.6577C1.67975 38.6306 1.80503 38.5636 1.90336 38.4653L4.50984 35.8588H40.4902L43.0966 38.4653C43.2285 38.5972 43.4073 38.6713 43.5938 38.6713C43.6862 38.6716 43.7777 38.6535 43.863 38.6179C43.9915 38.5646 44.1013 38.4745 44.1785 38.3589C44.2557 38.2432 44.2969 38.1073 44.2969 37.9682V33.7495C44.2968 33.563 44.2227 33.3842 44.0909 33.2523L43.5938 32.7552ZM28.125 14.6245V15.4682C28.125 15.5895 28.1564 15.7088 28.2162 15.8144C28.276 15.92 28.362 16.0083 28.466 16.0708L31.6406 17.9756V18.9838C31.6406 19.1052 31.6721 19.2244 31.7318 19.33C31.7916 19.4356 31.8776 19.5239 31.9816 19.5864L35.1562 21.4912V22.4995C35.1563 22.6208 35.1877 22.74 35.2474 22.8456C35.3072 22.9512 35.3933 23.0396 35.4973 23.102L38.6719 25.0068V26.0151C38.6718 26.1205 38.6955 26.2246 38.7412 26.3197C38.7868 26.4148 38.8532 26.4983 38.9355 26.5642L42.1875 29.1651V31.349L24.7043 13.8658L28.125 14.6245ZM18.9844 10.9225L20.7809 9.7272C20.8774 9.66277 20.9565 9.57544 21.0111 9.47299C21.0657 9.37054 21.0941 9.25617 21.0938 9.14009C21.0938 8.76713 21.2419 8.40944 21.5056 8.14572C21.7694 7.882 22.127 7.73384 22.5 7.73384C22.873 7.73384 23.2306 7.882 23.4944 8.14572C23.7581 8.40944 23.9062 8.76713 23.9062 9.14009C23.9062 9.25582 23.9348 9.36976 23.9894 9.47181C24.0439 9.57386 24.1229 9.66086 24.2191 9.72509L26.0156 10.9225V12.7169L22.6526 11.9695V11.9814C22.5539 11.9596 22.4517 11.9596 22.353 11.9814V11.9695L18.9844 12.7169V10.9225ZM2.8125 29.1651L6.06445 26.5635C6.14667 26.4977 6.21306 26.4142 6.25869 26.3193C6.30433 26.2244 6.32806 26.1204 6.32812 26.0151V25.0068L9.50273 23.102C9.60673 23.0396 9.6928 22.9512 9.75255 22.8456C9.81231 22.74 9.84373 22.6208 9.84375 22.4995V21.4912L13.0184 19.5864C13.1224 19.5239 13.2084 19.4356 13.2682 19.33C13.3279 19.2244 13.3594 19.1052 13.3594 18.9838V17.9756L16.534 16.0708C16.638 16.0083 16.724 15.92 16.7838 15.8144C16.8436 15.7088 16.875 15.5895 16.875 15.4682V14.6245L20.2957 13.8644L2.8125 31.349V29.1651ZM5.91609 34.4526L7.32234 33.0463H37.6777L39.0839 34.4526H5.91609ZM20.3906 30.5249V31.6401H19.2755L14.002 26.3666L15.1172 25.2515L20.3906 30.5249ZM16.1114 24.2573L20.3906 19.9781V28.5365L16.1114 24.2573ZM17.287 31.6401H8.72859L13.0078 27.3609L17.287 31.6401ZM21.7969 31.6401V18.5718L22.5 17.8687L23.2031 18.5718V31.6401H21.7969ZM29.8828 25.2515L30.998 26.3666L25.7245 31.6401H24.6094V30.5249L29.8828 25.2515ZM24.6094 28.5365V19.9781L28.8886 24.2573L24.6094 28.5365ZM31.9922 27.3609L36.2714 31.6401H27.713L31.9922 27.3609ZM42.8906 36.2709L22.9971 16.3774C22.8653 16.2455 22.6864 16.1715 22.5 16.1715C22.3136 16.1715 22.1347 16.2455 22.0029 16.3774L2.10938 36.2709V34.0406L22.5 13.6499L42.8906 34.0406V36.2709Z" fill="black"/>
</svg>
