<svg width="40" height="40" viewBox="0 0 40 40" fill="none" xmlns="http://www.w3.org/2000/svg">
<g clip-path="url(#clip0_4312_294)">
<path d="M38.75 3.75H33.125V1.25C33.125 1.08424 33.0592 0.925268 32.9419 0.808058C32.8247 0.690848 32.6658 0.625 32.5 0.625H26.25C26.0842 0.625 25.9253 0.690848 25.8081 0.808058C25.6908 0.925268 25.625 1.08424 25.625 1.25V3.75H14.375V1.25C14.375 1.08424 14.3092 0.925268 14.1919 0.808058C14.0747 0.690848 13.9158 0.625 13.75 0.625H7.5C7.33424 0.625 7.17527 0.690848 7.05806 0.808058C6.94085 0.925268 6.875 1.08424 6.875 1.25V3.75H1.25C1.08424 3.75 0.925268 3.81585 0.808058 3.93306C0.690848 4.05027 0.625 4.20924 0.625 4.375V38.75C0.625 38.9158 0.690848 39.0747 0.808058 39.1919C0.925268 39.3092 1.08424 39.375 1.25 39.375H7.5C7.66576 39.375 7.82473 39.3092 7.94194 39.1919C8.05915 39.0747 8.125 38.9158 8.125 38.75V36.25H13.125V38.75C13.125 38.9158 13.1908 39.0747 13.3081 39.1919C13.4253 39.3092 13.5842 39.375 13.75 39.375H26.25C26.4158 39.375 26.5747 39.3092 26.6919 39.1919C26.8092 39.0747 26.875 38.9158 26.875 38.75V36.25H31.875V38.75C31.875 38.9158 31.9408 39.0747 32.0581 39.1919C32.1753 39.3092 32.3342 39.375 32.5 39.375H38.75C38.9158 39.375 39.0747 39.3092 39.1919 39.1919C39.3092 39.0747 39.375 38.9158 39.375 38.75V4.375C39.375 4.20924 39.3092 4.05027 39.1919 3.93306C39.0747 3.81585 38.9158 3.75 38.75 3.75ZM17.5 5H22.5V18.125H17.5V5ZM1.875 5H3.75V18.125H1.875V5ZM6.875 35.625V38.125H1.875V19.375H3.75V21.875C3.75 22.0408 3.81585 22.1997 3.93306 22.3169C4.05027 22.4342 4.20924 22.5 4.375 22.5H6.875V35.625ZM13.125 35H8.125V22.5H13.125V35ZM5 21.25V5H7.5C7.66576 5 7.82473 4.93415 7.94194 4.81694C8.05915 4.69973 8.125 4.54076 8.125 4.375V1.875H13.125V4.375C13.125 4.54076 13.1908 4.69973 13.3081 4.81694C13.4253 4.93415 13.5842 5 13.75 5H16.25V21.25H5ZM25.625 35.625V38.125H14.375V22.5H16.875C17.0408 22.5 17.1997 22.4342 17.3169 22.3169C17.4342 22.1997 17.5 22.0408 17.5 21.875V19.375H22.5V21.875C22.5 22.0408 22.5658 22.1997 22.6831 22.3169C22.8003 22.4342 22.9592 22.5 23.125 22.5H25.625V35.625ZM31.875 35H26.875V22.5H31.875V35ZM23.75 21.25V5H26.25C26.4158 5 26.5747 4.93415 26.6919 4.81694C26.8092 4.69973 26.875 4.54076 26.875 4.375V1.875H31.875V4.375C31.875 4.54076 31.9408 4.69973 32.0581 4.81694C32.1753 4.93415 32.3342 5 32.5 5H35V21.25H23.75ZM38.125 38.125H33.125V22.5H35.625C35.7908 22.5 35.9497 22.4342 36.0669 22.3169C36.1842 22.1997 36.25 22.0408 36.25 21.875V19.375H38.125V38.125ZM38.125 18.125H36.25V5H38.125V18.125Z" fill="#151422"/>
</g>
<defs>
<clipPath id="clip0_4312_294">
<rect width="40" height="40" fill="white"/>
</clipPath>
</defs>
</svg>
