<svg width="65" height="65" viewBox="0 0 65 65" fill="none" xmlns="http://www.w3.org/2000/svg">
<path d="M59.9214 55.8594V35.5469H62.9683C63.1442 35.5468 63.317 35.501 63.4699 35.4141C63.6228 35.3272 63.7505 35.202 63.8405 35.0509C63.9304 34.8998 63.9796 34.7279 63.9833 34.5521C63.9869 34.3762 63.9447 34.2025 63.861 34.0478L50.6579 9.67281C50.5708 9.51193 50.4419 9.37755 50.2848 9.28387C50.1276 9.1902 49.9481 9.14071 49.7652 9.14062H15.2339C15.051 9.14071 14.8715 9.1902 14.7143 9.28387C14.5572 9.37755 14.4283 9.51193 14.3412 9.67281L1.13806 34.0478C1.05435 34.2025 1.01223 34.3762 1.01584 34.5521C1.01945 34.7279 1.06865 34.8998 1.15864 35.0509C1.24863 35.202 1.37632 35.3272 1.5292 35.4141C1.68208 35.501 1.85492 35.5468 2.0308 35.5469H5.07767V55.8594H7.10892V35.5469H35.5464V55.8594H37.5777V35.5469H57.8902V55.8594H59.9214ZM35.9577 33.5156H3.73603L15.8433 11.1719H48.061L35.9577 33.5156ZM42.3115 33.5156L49.7652 19.436L57.2188 33.5156H42.3115ZM50.663 16.7903C50.5681 16.6377 50.4358 16.5118 50.2787 16.4245C50.1216 16.3372 49.9449 16.2914 49.7652 16.2914C49.5855 16.2914 49.4087 16.3372 49.2516 16.4245C49.0945 16.5118 48.9623 16.6377 48.8674 16.7903L40.0152 33.5156H38.2683L49.7652 12.2891L61.2631 33.5156H59.5152L50.663 16.7903Z" fill="#F9E400"/>
<path d="M40.4899 14.7266C40.4008 14.5723 40.2728 14.4442 40.1186 14.3551C39.9644 14.2659 39.7895 14.2189 39.6114 14.2188H20.3145C20.1359 14.2184 19.9603 14.2652 19.8056 14.3543C19.6508 14.4435 19.5223 14.5719 19.4329 14.7266L11.3079 28.9453C11.2187 29.0999 11.1718 29.2752 11.1719 29.4536C11.172 29.6321 11.2191 29.8074 11.3084 29.9618C11.3978 30.1163 11.5263 30.2444 11.681 30.3334C11.8357 30.4224 12.0111 30.4691 12.1895 30.4688H31.4864C31.665 30.4691 31.8406 30.4223 31.9953 30.3332C32.1501 30.244 32.2786 30.1156 32.3679 29.9609L40.4929 15.7422C40.5816 15.5875 40.628 15.4122 40.6275 15.234C40.627 15.0557 40.5795 14.8807 40.4899 14.7266ZM35.4473 16.25L26.1808 21.0549L22.4036 16.25H35.4473ZM20.4486 17.0473L24.3455 22.0066L14.7824 26.9659L20.4486 17.0473ZM16.3536 28.4375L25.6201 23.6326L29.3972 28.4375H16.3536ZM31.3523 27.6402L27.4554 22.6809L37.0185 17.7216L31.3523 27.6402Z" fill="#F9E400"/>
</svg>
