<svg width="65" height="65" viewBox="0 0 65 65" fill="none" xmlns="http://www.w3.org/2000/svg">
<path d="M62.9688 6.09375H53.8281V2.03125C53.8281 1.76189 53.7211 1.50356 53.5307 1.31309C53.3402 1.12263 53.0819 1.01563 52.8125 1.01562H42.6562C42.3869 1.01563 42.1286 1.12263 41.9381 1.31309C41.7476 1.50356 41.6406 1.76189 41.6406 2.03125V6.09375H23.3594V2.03125C23.3594 1.76189 23.2524 1.50356 23.0619 1.31309C22.8714 1.12263 22.6131 1.01563 22.3438 1.01562H12.1875C11.9181 1.01563 11.6598 1.12263 11.4693 1.31309C11.2789 1.50356 11.1719 1.76189 11.1719 2.03125V6.09375H2.03125C1.76189 6.09375 1.50356 6.20075 1.31309 6.39122C1.12263 6.58169 1.01563 6.84001 1.01562 7.10938V62.9688C1.01563 63.2381 1.12263 63.4964 1.31309 63.6869C1.50356 63.8774 1.76189 63.9844 2.03125 63.9844H12.1875C12.4569 63.9844 12.7152 63.8774 12.9057 63.6869C13.0961 63.4964 13.2031 63.2381 13.2031 62.9688V58.9062H21.3281V62.9688C21.3281 63.2381 21.4351 63.4964 21.6256 63.6869C21.8161 63.8774 22.0744 63.9844 22.3438 63.9844H42.6562C42.9256 63.9844 43.1839 63.8774 43.3744 63.6869C43.5649 63.4964 43.6719 63.2381 43.6719 62.9688V58.9062H51.7969V62.9688C51.7969 63.2381 51.9039 63.4964 52.0943 63.6869C52.2848 63.8774 52.5431 63.9844 52.8125 63.9844H62.9688C63.2381 63.9844 63.4964 63.8774 63.6869 63.6869C63.8774 63.4964 63.9844 63.2381 63.9844 62.9688V7.10938C63.9844 6.84001 63.8774 6.58169 63.6869 6.39122C63.4964 6.20075 63.2381 6.09375 62.9688 6.09375ZM28.4375 8.125H36.5625V29.4531H28.4375V8.125ZM3.04688 8.125H6.09375V29.4531H3.04688V8.125ZM11.1719 57.8906V61.9531H3.04688V31.4844H6.09375V35.5469C6.09375 35.8162 6.20075 36.0746 6.39122 36.265C6.58169 36.4555 6.84001 36.5625 7.10938 36.5625H11.1719V57.8906ZM21.3281 56.875H13.2031V36.5625H21.3281V56.875ZM8.125 34.5312V8.125H12.1875C12.4569 8.125 12.7152 8.018 12.9057 7.82753C13.0961 7.63706 13.2031 7.37874 13.2031 7.10938V3.04688H21.3281V7.10938C21.3281 7.37874 21.4351 7.63706 21.6256 7.82753C21.8161 8.018 22.0744 8.125 22.3438 8.125H26.4062V34.5312H8.125ZM41.6406 57.8906V61.9531H23.3594V36.5625H27.4219C27.6912 36.5625 27.9496 36.4555 28.14 36.265C28.3305 36.0746 28.4375 35.8162 28.4375 35.5469V31.4844H36.5625V35.5469C36.5625 35.8162 36.6695 36.0746 36.86 36.265C37.0504 36.4555 37.3088 36.5625 37.5781 36.5625H41.6406V57.8906ZM51.7969 56.875H43.6719V36.5625H51.7969V56.875ZM38.5938 34.5312V8.125H42.6562C42.9256 8.125 43.1839 8.018 43.3744 7.82753C43.5649 7.63706 43.6719 7.37874 43.6719 7.10938V3.04688H51.7969V7.10938C51.7969 7.37874 51.9039 7.63706 52.0943 7.82753C52.2848 8.018 52.5431 8.125 52.8125 8.125H56.875V34.5312H38.5938ZM61.9531 61.9531H53.8281V36.5625H57.8906C58.16 36.5625 58.4183 36.4555 58.6088 36.265C58.7992 36.0746 58.9062 35.8162 58.9062 35.5469V31.4844H61.9531V61.9531ZM61.9531 29.4531H58.9062V8.125H61.9531V29.4531Z" fill="#F9E400"/>
</svg>
