<svg width="65" height="65" viewBox="0 0 65 65" fill="none" xmlns="http://www.w3.org/2000/svg">
<path d="M63.9516 17.821H41.9355C41.7203 17.8209 41.5103 17.8871 41.334 18.0105C41.1577 18.1339 41.0236 18.3086 40.95 18.5108L37.0081 29.3522H20.779L17.8016 14.4665C17.7533 14.2297 17.6246 14.0169 17.4374 13.8641C17.2502 13.7112 17.0159 13.6278 16.7742 13.6278H14.6774V11.5312H18.871C19.0534 11.5311 19.2327 11.4834 19.3911 11.3928C19.5494 11.3022 19.6814 11.1719 19.7739 11.0147C19.8665 10.8574 19.9164 10.6788 19.9187 10.4964C19.9211 10.3139 19.8757 10.1341 19.7873 9.97452L14.5453 0.539872C14.4546 0.376349 14.3218 0.240059 14.1607 0.145132C13.9996 0.0502051 13.816 9.61533e-05 13.629 0H3.14516C2.86711 0 2.60045 0.110445 2.40384 0.307038C2.20723 0.503632 2.09677 0.77027 2.09677 1.04829V13.6278H1.04839C0.770338 13.6278 0.503676 13.7383 0.307065 13.9349C0.110455 14.1315 0 14.3981 0 14.6761V18.8693C0 19.1473 0.110455 19.414 0.307065 19.6106C0.503676 19.8072 0.770338 19.9176 1.04839 19.9176H11.721L14.6984 34.8034C14.7467 35.0402 14.8754 35.253 15.0626 35.4058C15.2498 35.5586 15.4841 35.6421 15.7258 35.642H40.8871C41.1023 35.6421 41.3123 35.5759 41.4886 35.4525C41.6649 35.3291 41.799 35.1544 41.8726 34.9522L45.8145 24.1108H46.129V27.2557C46.129 27.5337 46.2395 27.8003 46.4361 27.9969C46.6327 28.1935 46.8994 28.304 47.1774 28.304H48.2258V32.4971H47.1774C46.8994 32.4971 46.6327 32.6076 46.4361 32.8042C46.2395 33.0008 46.129 33.2674 46.129 33.5454V37.7386C46.129 38.0166 46.2395 38.2833 46.4361 38.4799C46.6327 38.6765 46.8994 38.7869 47.1774 38.7869H48.2258V63.946C48.2248 64.1251 48.2698 64.3015 48.3564 64.4584C48.443 64.6152 48.5683 64.7472 48.7205 64.8419C48.8726 64.9365 49.0465 64.9905 49.2254 64.9989C49.4044 65.0072 49.5825 64.9695 49.7428 64.8894L60.2267 59.648C60.4018 59.5605 60.5489 59.4258 60.6513 59.259C60.7538 59.0923 60.8075 58.9002 60.8064 58.7045V38.7869H61.8548C62.1329 38.7869 62.3995 38.6765 62.5962 38.4799C62.7928 38.2833 62.9032 38.0166 62.9032 37.7386V33.5454C62.9032 33.2674 62.7928 33.0008 62.5962 32.8042C62.3995 32.6076 62.1329 32.4971 61.8548 32.4971H60.8064V28.304H61.8548C62.1329 28.304 62.3995 28.1935 62.5962 27.9969C62.7928 27.8003 62.9032 27.5337 62.9032 27.2557V24.1108H63.9516C64.2297 24.1108 64.4963 24.0003 64.6929 23.8037C64.8895 23.6071 65 23.3405 65 23.0625V18.8693C65 18.5913 64.8895 18.3246 64.6929 18.128C64.4963 17.9315 64.2297 17.821 63.9516 17.821ZM4.19355 2.09659H13.0126L17.0887 9.43465H13.629C13.351 9.43465 13.0843 9.5451 12.8877 9.74169C12.6911 9.93828 12.5806 10.2049 12.5806 10.4829V13.6278H4.19355V2.09659ZM58.7097 58.0566L50.3226 62.2498V38.7869H58.7097V58.0566ZM60.8064 36.6903H48.2258V34.5937H60.8064V36.6903ZM50.3226 32.4971V28.304H58.7097V32.4971H50.3226ZM60.8064 26.2074H48.2258V24.1108H60.8064V26.2074ZM62.9032 22.0142H45.0806C44.8654 22.0141 44.6554 22.0803 44.4791 22.2037C44.3028 22.3271 44.1688 22.5018 44.0952 22.704L40.1532 33.5454H16.5855L13.6081 18.6596C13.5597 18.4229 13.4311 18.2101 13.2438 18.0572C13.0566 17.9044 12.8223 17.821 12.5806 17.821H2.09677V15.7244H15.9145L18.8919 30.6102C18.9403 30.847 19.0689 31.0598 19.2562 31.2126C19.4434 31.3654 19.6777 31.4489 19.9194 31.4488H37.7419C37.9571 31.4489 38.1672 31.3827 38.3435 31.2593C38.5198 31.1359 38.6538 30.9613 38.7274 30.7591L42.6694 19.9176H62.9032V22.0142Z" fill="#F9E400"/>
<path d="M31.6276 14.0813C31.0709 14.8864 28.2969 19.002 28.2969 20.9665C28.2969 22.0786 28.7387 23.1451 29.5251 23.9315C30.3116 24.7179 31.3782 25.1597 32.4904 25.1597C33.6026 25.1597 34.6693 24.7179 35.4557 23.9315C36.2422 23.1451 36.684 22.0786 36.684 20.9665C36.684 19.002 33.9099 14.8864 33.3532 14.0813C33.2516 13.9491 33.121 13.842 32.9713 13.7683C32.8217 13.6946 32.6572 13.6562 32.4904 13.6562C32.3236 13.6562 32.1591 13.6946 32.0095 13.7683C31.8599 13.842 31.7292 13.9491 31.6276 14.0813ZM32.4904 23.0631C31.9343 23.0631 31.401 22.8422 31.0078 22.449C30.6146 22.0558 30.3936 21.5225 30.3936 20.9665C30.3936 20.2725 31.3718 18.372 32.4904 16.5857C33.6091 18.3678 34.5872 20.2725 34.5872 20.9665C34.5872 21.5225 34.3663 22.0558 33.9731 22.449C33.5798 22.8422 33.0465 23.0631 32.4904 23.0631Z" fill="#F9E400"/>
<path d="M25.3464 0.454332C24.7897 1.25942 22.0156 5.37503 22.0156 7.33953C22.0156 8.45163 22.4574 9.51818 23.2439 10.3046C24.0303 11.0909 25.097 11.5327 26.2092 11.5327C27.3214 11.5327 28.388 11.0909 29.1745 10.3046C29.9609 9.51818 30.4027 8.45163 30.4027 7.33953C30.4027 5.37503 27.6287 1.25942 27.072 0.454332C26.9704 0.322112 26.8397 0.215019 26.6901 0.141322C26.5405 0.0676253 26.3759 0.0292969 26.2092 0.0292969C26.0424 0.0292969 25.8779 0.0676253 25.7282 0.141322C25.5786 0.215019 25.448 0.322112 25.3464 0.454332ZM26.2092 9.43612C25.6531 9.43612 25.1198 9.21523 24.7265 8.82204C24.3333 8.42885 24.1124 7.89558 24.1124 7.33953C24.1124 6.64556 25.0905 4.745 26.2092 2.95871C27.3278 4.74081 28.3059 6.64556 28.3059 7.33953C28.3059 7.89558 28.085 8.42885 27.6918 8.82204C27.2986 9.21523 26.7653 9.43612 26.2092 9.43612Z" fill="#F9E400"/>
<path d="M42.9808 7.33953C42.9808 5.37503 40.2068 1.25942 39.6501 0.454332C39.5485 0.322112 39.4178 0.215019 39.2682 0.141322C39.1186 0.0676253 38.9541 0.0292969 38.7873 0.0292969C38.6205 0.0292969 38.456 0.0676253 38.3064 0.141322C38.1568 0.215019 38.0261 0.322112 37.9245 0.454332C37.3678 1.25942 34.5938 5.37503 34.5938 7.33953C34.5938 8.45163 35.0356 9.51818 35.822 10.3046C36.6085 11.0909 37.6751 11.5327 38.7873 11.5327C39.8995 11.5327 40.9661 11.0909 41.7526 10.3046C42.539 9.51818 42.9808 8.45163 42.9808 7.33953ZM36.6905 7.33953C36.6905 6.64556 37.6687 4.745 38.7873 2.95871C39.9059 4.74081 40.8841 6.64556 40.8841 7.33953C40.8841 7.89558 40.6632 8.42885 40.2699 8.82204C39.8767 9.21523 39.3434 9.43612 38.7873 9.43612C38.2312 9.43612 37.6979 9.21523 37.3047 8.82204C36.9114 8.42885 36.6905 7.89558 36.6905 7.33953Z" fill="#F9E400"/>
</svg>
