<svg width="65" height="65" viewBox="0 0 65 65" fill="none" xmlns="http://www.w3.org/2000/svg">
<path d="M62.9688 18.2812H41.6406C41.4321 18.2812 41.2287 18.3453 41.0579 18.4648C40.8871 18.5844 40.7572 18.7536 40.6859 18.9495L36.8672 29.4531H21.1453L18.2609 15.0312C18.2141 14.8018 18.0895 14.5957 17.9081 14.4476C17.7267 14.2996 17.4998 14.2187 17.2656 14.2188H15.2344V12.1875H19.2969C19.4736 12.1874 19.6473 12.1412 19.8007 12.0534C19.9541 11.9656 20.082 11.8394 20.1716 11.687C20.2613 11.5347 20.3096 11.3616 20.3119 11.1849C20.3142 11.0081 20.2703 10.8339 20.1845 10.6793L15.1064 1.53867C15.0185 1.38025 14.8899 1.2482 14.7338 1.15623C14.5777 1.06427 14.3999 1.01572 14.2188 1.01562H4.0625C3.79314 1.01563 3.53481 1.12263 3.34434 1.31309C3.15388 1.50356 3.04688 1.76189 3.04688 2.03125V14.2188H2.03125C1.76189 14.2188 1.50356 14.3258 1.31309 14.5162C1.12263 14.7067 1.01563 14.965 1.01562 15.2344V19.2969C1.01563 19.5662 1.12263 19.8246 1.31309 20.015C1.50356 20.2055 1.76189 20.3125 2.03125 20.3125H12.3703L15.2547 34.7344C15.3015 34.9638 15.4262 35.17 15.6075 35.318C15.7889 35.4661 16.0159 35.5469 16.25 35.5469H40.625C40.8335 35.5469 41.0369 35.4828 41.2077 35.3633C41.3785 35.2437 41.5084 35.0745 41.5797 34.8786L45.3984 24.375H45.7031V27.4219C45.7031 27.6912 45.8101 27.9496 46.0006 28.14C46.1911 28.3305 46.4494 28.4375 46.7188 28.4375H47.7344V32.5H46.7188C46.4494 32.5 46.1911 32.607 46.0006 32.7975C45.8101 32.9879 45.7031 33.2463 45.7031 33.5156V37.5781C45.7031 37.8475 45.8101 38.1058 46.0006 38.2963C46.1911 38.4867 46.4494 38.5938 46.7188 38.5938H47.7344V62.9688C47.7334 63.1423 47.777 63.3132 47.8609 63.4652C47.9448 63.6171 48.0662 63.7451 48.2136 63.8367C48.361 63.9284 48.5294 63.9808 48.7028 63.9888C48.8762 63.9969 49.0487 63.9604 49.204 63.8828L59.3602 58.8047C59.5298 58.7199 59.6723 58.5894 59.7716 58.4279C59.8709 58.2663 59.9229 58.0802 59.9219 57.8906V38.5938H60.9375C61.2069 38.5938 61.4652 38.4867 61.6557 38.2963C61.8461 38.1058 61.9531 37.8475 61.9531 37.5781V33.5156C61.9531 33.2463 61.8461 32.9879 61.6557 32.7975C61.4652 32.607 61.2069 32.5 60.9375 32.5H59.9219V28.4375H60.9375C61.2069 28.4375 61.4652 28.3305 61.6557 28.14C61.8461 27.9496 61.9531 27.6912 61.9531 27.4219V24.375H62.9688C63.2381 24.375 63.4964 24.268 63.6869 24.0775C63.8774 23.8871 63.9844 23.6287 63.9844 23.3594V19.2969C63.9844 19.0275 63.8774 18.7692 63.6869 18.5787C63.4964 18.3883 63.2381 18.2812 62.9688 18.2812ZM5.07812 3.04688H13.6216L17.5703 10.1562H14.2188C13.9494 10.1562 13.6911 10.2633 13.5006 10.4537C13.3101 10.6442 13.2031 10.9025 13.2031 11.1719V14.2188H5.07812V3.04688ZM57.8906 57.263L49.7656 61.3255V38.5938H57.8906V57.263ZM59.9219 36.5625H47.7344V34.5312H59.9219V36.5625ZM49.7656 32.5V28.4375H57.8906V32.5H49.7656ZM59.9219 26.4062H47.7344V24.375H59.9219V26.4062ZM61.9531 22.3438H44.6875C44.479 22.3437 44.2756 22.4078 44.1048 22.5273C43.934 22.6469 43.8041 22.8161 43.7328 23.012L39.9141 33.5156H17.0828L14.1984 19.0938C14.1516 18.8643 14.027 18.6582 13.8456 18.5101C13.6642 18.362 13.4373 18.2812 13.2031 18.2812H3.04688V16.25H16.4328L19.3172 30.6719C19.364 30.9013 19.4887 31.1075 19.67 31.2555C19.8514 31.4036 20.0784 31.4844 20.3125 31.4844H37.5781C37.7866 31.4844 37.9901 31.4203 38.1609 31.3008C38.3316 31.1812 38.4615 31.012 38.5328 30.8161L42.3516 20.3125H61.9531V22.3438Z" fill="#151422"/>
<path d="M31.6641 14.6579C31.1248 15.4379 28.4375 19.4252 28.4375 21.3285C28.4375 22.4059 28.8655 23.4393 29.6274 24.2011C30.3892 24.963 31.4226 25.391 32.5 25.391C33.5774 25.391 34.6108 24.963 35.3726 24.2011C36.1345 23.4393 36.5625 22.4059 36.5625 21.3285C36.5625 19.4252 33.8752 15.4379 33.3359 14.6579C33.2374 14.5298 33.1108 14.426 32.9659 14.3546C32.821 14.2832 32.6616 14.2461 32.5 14.2461C32.3384 14.2461 32.179 14.2832 32.0341 14.3546C31.8892 14.426 31.7626 14.5298 31.6641 14.6579ZM32.5 23.3598C31.9613 23.3598 31.4446 23.1458 31.0637 22.7648C30.6828 22.3839 30.4688 21.8672 30.4688 21.3285C30.4688 20.6562 31.4163 18.8148 32.5 17.0842C33.5837 18.8108 34.5312 20.6562 34.5312 21.3285C34.5312 21.8672 34.3172 22.3839 33.9363 22.7648C33.5554 23.1458 33.0387 23.3598 32.5 23.3598Z" fill="#151422"/>
<path d="M25.5704 1.45476C25.0311 2.23476 22.3438 6.2221 22.3438 8.12538C22.3438 9.20282 22.7718 10.2361 23.5336 10.998C24.2955 11.7599 25.3288 12.1879 26.4062 12.1879C27.4837 12.1879 28.517 11.7599 29.2789 10.998C30.0407 10.2361 30.4688 9.20282 30.4688 8.12538C30.4688 6.2221 27.7814 2.23476 27.2421 1.45476C27.1437 1.32666 27.0171 1.2229 26.8721 1.1515C26.7272 1.0801 26.5678 1.04297 26.4062 1.04297C26.2447 1.04297 26.0853 1.0801 25.9404 1.1515C25.7954 1.2229 25.6688 1.32666 25.5704 1.45476ZM26.4062 10.1566C25.8675 10.1566 25.3509 9.94263 24.9699 9.56169C24.589 9.18076 24.375 8.6641 24.375 8.12538C24.375 7.45304 25.3226 5.61171 26.4062 3.88109C27.4899 5.60765 28.4375 7.45304 28.4375 8.12538C28.4375 8.6641 28.2235 9.18076 27.8426 9.56169C27.4616 9.94263 26.945 10.1566 26.4062 10.1566Z" fill="#151422"/>
<path d="M42.6562 8.12538C42.6562 6.2221 39.9689 2.23476 39.4296 1.45476C39.3312 1.32666 39.2046 1.2229 39.0596 1.1515C38.9147 1.0801 38.7553 1.04297 38.5938 1.04297C38.4322 1.04297 38.2728 1.0801 38.1279 1.1515C37.9829 1.2229 37.8563 1.32666 37.7579 1.45476C37.2186 2.23476 34.5312 6.2221 34.5312 8.12538C34.5312 9.20282 34.9593 10.2361 35.7211 10.998C36.483 11.7599 37.5163 12.1879 38.5938 12.1879C39.6712 12.1879 40.7045 11.7599 41.4664 10.998C42.2282 10.2361 42.6562 9.20282 42.6562 8.12538ZM36.5625 8.12538C36.5625 7.45304 37.5101 5.61171 38.5938 3.88109C39.6774 5.60765 40.625 7.45304 40.625 8.12538C40.625 8.6641 40.411 9.18076 40.0301 9.56169C39.6491 9.94263 39.1325 10.1566 38.5938 10.1566C38.055 10.1566 37.5384 9.94263 37.1574 9.56169C36.7765 9.18076 36.5625 8.6641 36.5625 8.12538Z" fill="#151422"/>
</svg>
