<svg width="35" height="35" viewBox="0 0 35 35" fill="none" xmlns="http://www.w3.org/2000/svg">
<path d="M32.2654 30.0781V19.1406H33.906C34.0007 19.1406 34.0938 19.1159 34.1761 19.0691C34.2584 19.0223 34.3272 18.9549 34.3756 18.8736C34.4241 18.7922 34.4506 18.6996 34.4525 18.605C34.4545 18.5103 34.4318 18.4167 34.3867 18.3334L27.2773 5.20844C27.2304 5.12181 27.161 5.04945 27.0764 4.99901C26.9918 4.94857 26.8951 4.92192 26.7966 4.92188H8.20288C8.10438 4.92192 8.00771 4.94857 7.9231 4.99901C7.83848 5.04945 7.76907 5.12181 7.72218 5.20844L0.612803 18.3334C0.567726 18.4167 0.545048 18.5103 0.54699 18.605C0.548932 18.6996 0.575429 18.7922 0.623884 18.8736C0.67234 18.9549 0.741094 19.0223 0.823416 19.0691C0.905738 19.1159 0.998805 19.1406 1.09351 19.1406H2.73413V30.0781H3.82788V19.1406H19.1404V30.0781H20.2341V19.1406H31.1716V30.0781H32.2654ZM19.3619 18.0469H2.01171L8.53101 6.01562H25.879L19.3619 18.0469ZM22.7831 18.0469L26.7966 10.4655L30.8101 18.0469H22.7831ZM27.2801 9.04094C27.229 8.95876 27.1578 8.89097 27.0732 8.84396C26.9886 8.79695 26.8934 8.77229 26.7966 8.77229C26.6999 8.77229 26.6047 8.79695 26.5201 8.84396C26.4355 8.89097 26.3643 8.95876 26.3132 9.04094L21.5466 18.0469H20.606L26.7966 6.61719L32.9878 18.0469H32.0466L27.2801 9.04094Z" fill="#151422"/>
<path d="M21.8023 7.92969C21.7543 7.84664 21.6854 7.77765 21.6023 7.72966C21.5193 7.68167 21.4251 7.65635 21.3292 7.65625H10.9386C10.8424 7.65606 10.7479 7.68124 10.6645 7.72925C10.5812 7.77726 10.512 7.84639 10.4639 7.92969L6.08889 15.5859C6.04085 15.6692 6.01558 15.7636 6.01563 15.8596C6.01567 15.9557 6.04104 16.0501 6.08916 16.1333C6.13729 16.2164 6.20648 16.2855 6.28976 16.3334C6.37305 16.3813 6.46749 16.4064 6.56358 16.4063H16.9542C17.0504 16.4064 17.1449 16.3813 17.2283 16.3333C17.3116 16.2852 17.3808 16.2161 17.4289 16.1328L21.8039 8.47656C21.8516 8.39328 21.8766 8.2989 21.8763 8.20291C21.8761 8.10691 21.8505 8.01268 21.8023 7.92969ZM19.087 8.75L14.0973 11.3373L12.0635 8.75H19.087ZM11.0108 9.1793L13.1091 11.8497L7.95975 14.5201L11.0108 9.1793ZM8.80577 15.3125L13.7955 12.7252L15.8293 15.3125H8.80577ZM16.882 14.8832L14.7837 12.2128L19.933 9.54242L16.882 14.8832Z" fill="#151422"/>
</svg>
