<svg width="35" height="35" viewBox="0 0 35 35" fill="none" xmlns="http://www.w3.org/2000/svg">
<g clip-path="url(#clip0_4381_32954)">
<path d="M34.2196 13.7717L23.5085 6.27403C23.4334 4.73103 22.7676 3.27605 21.649 2.21057C20.5304 1.14509 19.0448 0.550781 17.5 0.550781C15.9552 0.550781 14.4696 1.14509 13.351 2.21057C12.2324 3.27605 11.5666 4.73103 11.4915 6.27403L0.780391 13.7717C0.708327 13.8221 0.649476 13.8891 0.608825 13.9671C0.568174 14.045 0.546924 14.1316 0.546875 14.2196V33.9071C0.546875 34.0521 0.604492 34.1912 0.707051 34.2938C0.80961 34.3963 0.94871 34.454 1.09375 34.454H5.46875C5.57885 34.4538 5.68635 34.4205 5.77719 34.3582L14.8137 28.1786C15.6087 27.6467 16.5436 27.3628 17.5 27.3628C18.4564 27.3628 19.3913 27.6467 20.1862 28.1786L29.2228 34.3582C29.3136 34.4205 29.4211 34.4538 29.5312 34.454H33.9062C34.0513 34.454 34.1904 34.3963 34.2929 34.2938C34.3955 34.1912 34.4531 34.0521 34.4531 33.9071V14.2196C34.4531 14.1316 34.4318 14.045 34.3912 13.9671C34.3505 13.8891 34.2917 13.8221 34.2196 13.7717ZM23.5156 7.61387L27.6976 10.5413L28.6016 11.8954C29.1429 12.7082 29.4599 13.6497 29.5204 14.6244C29.5809 15.5992 29.3828 16.5726 28.9461 17.4461L28.2319 18.8746L23.5156 15.5753V7.61387ZM23.5156 16.9107L28.0104 20.0569L29.0495 22.1378C29.5349 23.1078 29.6581 24.2193 29.3967 25.2721C29.1353 26.3248 28.5066 27.2497 27.6238 27.88L26.9418 28.3667L23.5156 25.9665V16.9107ZM12.5781 6.56333C12.5781 5.25796 13.0967 4.00607 14.0197 3.08304C14.9427 2.16 16.1946 1.64145 17.5 1.64145C18.8054 1.64145 20.0573 2.16 20.9803 3.08304C21.9033 4.00607 22.4219 5.25796 22.4219 6.56333V22.7995C21.8682 22.0077 21.1317 21.3612 20.2749 20.9148C19.418 20.4684 18.4662 20.2353 17.5 20.2353C16.5338 20.2353 15.582 20.4684 14.7251 20.9148C13.8683 21.3612 13.1318 22.0077 12.5781 22.7995V6.56333ZM6.39844 11.8954L7.30133 10.5413L11.4844 7.61387V15.5753L6.76813 18.8768L6.05391 17.4461C5.61721 16.5726 5.41908 15.5992 5.47958 14.6244C5.54008 13.6497 5.85707 12.7082 6.39844 11.8954ZM11.4844 16.9107V25.9665L8.05711 28.365L7.37516 27.8783C6.49234 27.248 5.86361 26.3232 5.60223 25.2704C5.34084 24.2177 5.46398 23.1062 5.94945 22.1361L6.98852 20.058L11.4844 16.9107ZM1.64062 14.5045L5.00336 12.1529C4.57791 13.0602 4.36339 14.052 4.37589 15.0539C4.38839 16.0559 4.62759 17.042 5.07555 17.9383L5.8625 19.5122L1.64062 22.4659V14.5045ZM1.64062 23.8014L5.10836 21.3738L4.97109 21.6472C4.36973 22.8501 4.21745 24.2281 4.54168 25.5332C4.86591 26.8383 5.64534 27.9849 6.73969 28.7665L7.10719 29.029L1.63844 32.8571L1.64062 23.8014ZM29.7008 33.3602L20.8037 27.2729C19.8305 26.6073 18.679 26.2511 17.5 26.2511C16.321 26.2511 15.1695 26.6073 14.1963 27.2729L5.29922 33.3602H2.82844L12.3441 26.6987C12.4162 26.6484 12.4752 26.5814 12.5159 26.5034C12.5567 26.4255 12.578 26.3388 12.5781 26.2508C12.5781 24.9455 13.0967 23.6936 14.0197 22.7705C14.9427 21.8475 16.1946 21.329 17.5 21.329C18.8054 21.329 20.0573 21.8475 20.9803 22.7705C21.9033 23.6936 22.4219 24.9455 22.4219 26.2508C22.4219 26.3388 22.4432 26.4254 22.4838 26.5033C22.5245 26.5813 22.5833 26.6483 22.6554 26.6987L32.1716 33.3602H29.7008ZM33.3594 32.8565L27.8906 29.0284L28.2581 28.7659C29.3524 27.9847 30.1321 26.8386 30.4567 25.5338C30.7813 24.229 30.6296 22.8512 30.0289 21.6483L29.8916 21.3749L33.3594 23.8014V32.8565ZM33.3594 22.4659L29.1375 19.5128L29.9245 17.9383C30.3727 17.0418 30.612 16.0554 30.6245 15.0531C30.637 14.0508 30.4224 13.0587 29.9966 12.1513L33.3594 14.5045V22.4659Z" fill="#151422"/>
</g>
<defs>
<clipPath id="clip0_4381_32954">
<rect width="35" height="35" fill="white"/>
</clipPath>
</defs>
</svg>
