<svg width="35" height="35" viewBox="0 0 35 35" fill="none" xmlns="http://www.w3.org/2000/svg">
<path d="M21.277 16.1744C21.2329 16.0802 21.1628 16.0005 21.0751 15.9447C20.9873 15.889 20.8855 15.8593 20.7815 15.8594H11.4846C11.4045 15.8593 11.3254 15.8769 11.2528 15.9108C11.1802 15.9448 11.116 15.9942 11.0646 16.0557L5.59588 22.6182C5.5292 22.698 5.48668 22.7952 5.4733 22.8984C5.45991 23.0015 5.47622 23.1064 5.52031 23.2006C5.5644 23.2948 5.63444 23.3744 5.72222 23.4303C5.80999 23.4861 5.91186 23.5157 6.01588 23.5156H15.3128C15.3929 23.5157 15.472 23.4981 15.5446 23.4642C15.6172 23.4302 15.6814 23.3808 15.7328 23.3193L21.2015 16.7568C21.2682 16.6769 21.3107 16.5797 21.3241 16.4766C21.3374 16.3734 21.3211 16.2686 21.277 16.1744ZM11.7406 16.9531H14.6122L13.7372 18.0469H10.8284L11.7406 16.9531ZM9.91783 19.1406H12.8622L11.9872 20.2344H9.00619L9.91783 19.1406ZM10.2372 22.4219H7.18345L8.094 21.3281H11.1111L10.2372 22.4219ZM15.0568 22.4219H11.6383L12.5133 21.3281H15.969L15.0568 22.4219ZM16.8795 20.2344H13.3883L14.2633 19.1406H17.7912L16.8795 20.2344ZM18.7034 18.0469H15.1383L16.0133 16.9531H19.6139L18.7034 18.0469Z" fill="#151422"/>
<path d="M32.8127 32.8125V25.7031H33.9065C34.008 25.7031 34.1076 25.6748 34.194 25.6214C34.2804 25.5681 34.3502 25.4917 34.3956 25.4008C34.441 25.31 34.4602 25.2083 34.4511 25.1071C34.442 25.006 34.4049 24.9094 34.344 24.8281L26.1408 13.8906C26.0899 13.8227 26.0238 13.7676 25.9479 13.7296C25.872 13.6916 25.7882 13.6719 25.7033 13.6719H9.84396C9.76194 13.6718 9.68097 13.6903 9.60704 13.7258C9.53311 13.7613 9.4681 13.8129 9.41685 13.877L0.666846 24.8145C0.602441 24.8949 0.562074 24.9919 0.550397 25.0943C0.538721 25.1967 0.55621 25.3003 0.600848 25.3931C0.645487 25.486 0.715459 25.5644 0.802702 25.6192C0.889944 25.6741 0.990907 25.7032 1.09396 25.7031H2.18771V32.8125H3.28146V25.7031H16.4065V32.8125H17.5002V25.7031H31.719V32.8125H32.8127ZM16.6903 24.6094H2.232L10.107 14.7656H24.5653L16.6903 24.6094ZM18.0914 24.6094L25.6897 15.1118L32.8127 24.6094H18.0914Z" fill="#151422"/>
<path d="M3.5 10.4913L1.92227 12.0701L2.69555 12.8434L4.27383 11.2656C4.78464 11.6486 5.38364 11.8969 6.01562 11.9875V14.2188H7.10938V11.9875C7.74136 11.8969 8.34036 11.6486 8.85117 11.2656L10.4295 12.8445L11.2027 12.0712L9.625 10.4913C10.0079 9.98058 10.2561 9.38179 10.3469 8.75H12.5781V7.65625H10.3469C10.2561 7.02446 10.0079 6.42567 9.625 5.915L11.2033 4.33617L10.4295 3.56289L8.85117 5.14062C8.34036 4.75763 7.74136 4.50937 7.10938 4.41875V2.1875H6.01562V4.41875C5.38364 4.50937 4.78464 4.75763 4.27383 5.14062L2.69555 3.56289L1.92227 4.33617L3.5 5.915C3.11711 6.42567 2.86886 7.02446 2.77813 7.65625H0.546875V8.75H2.77813C2.86886 9.38179 3.11711 9.98058 3.5 10.4913ZM6.5625 5.46875C7.10331 5.46875 7.63197 5.62912 8.08164 5.92958C8.5313 6.23003 8.88177 6.65708 9.08873 7.15672C9.29569 7.65637 9.34984 8.20616 9.24434 8.73658C9.13883 9.26699 8.8784 9.75421 8.496 10.1366C8.11359 10.519 7.62637 10.7795 7.09595 10.885C6.56553 10.9905 6.01574 10.9363 5.5161 10.7294C5.01646 10.5224 4.58941 10.1719 4.28895 9.72226C3.98849 9.2726 3.82812 8.74393 3.82812 8.20312C3.82899 7.47819 4.11736 6.7832 4.62996 6.27059C5.14257 5.75798 5.83757 5.46962 6.5625 5.46875Z" fill="#151422"/>
</svg>
