<svg width="35" height="35" viewBox="0 0 35 35" fill="none" xmlns="http://www.w3.org/2000/svg">
<path d="M25.1563 27.3438C25.3013 27.3438 25.4404 27.2861 25.543 27.1836C25.6456 27.081 25.7032 26.9419 25.7032 26.7969V21.875H33.9063C33.9964 21.875 34.085 21.8528 34.1644 21.8103C34.2438 21.7678 34.3115 21.7063 34.3614 21.6314C34.4114 21.5565 34.442 21.4704 34.4507 21.3807C34.4593 21.2911 34.4457 21.2007 34.4111 21.1176L28.9423 7.99258C28.9008 7.89296 28.8307 7.80787 28.7408 7.74802C28.651 7.68817 28.5455 7.65624 28.4375 7.65625H6.56255C6.45461 7.65624 6.34909 7.68817 6.25926 7.74802C6.16944 7.80787 6.09934 7.89296 6.05778 7.99258L0.58903 21.1176C0.554359 21.2007 0.54075 21.2911 0.54941 21.3807C0.55807 21.4704 0.588732 21.5565 0.638672 21.6314C0.688613 21.7063 0.756286 21.7678 0.835683 21.8103C0.915079 21.8528 1.00374 21.875 1.0938 21.875H9.29692V26.7969C9.29687 26.9033 9.32789 27.0075 9.38618 27.0966C9.44446 27.1856 9.52748 27.2558 9.62505 27.2984C9.69439 27.3268 9.7689 27.3403 9.8438 27.3383V27.3438H25.1563ZM14.4452 26.25L17.5 23.1952L20.5549 26.25H14.4452ZM22.1015 26.25L17.8867 22.0352C17.7841 21.9327 17.6451 21.8751 17.5 21.8751C17.355 21.8751 17.216 21.9327 17.1134 22.0352L12.8986 26.25H11.2361L17.5 20.4334L23.764 26.25H22.1015ZM10.3907 25.5429V17.7384L16.9532 11.6446V19.4491L10.3907 25.5429ZM24.6094 25.5429L18.0469 19.4491V11.6446L24.6094 17.7384V25.5429ZM9.47138 17.0991C9.41629 17.1504 9.37237 17.2124 9.34235 17.2814C9.31233 17.3504 9.29687 17.4248 9.29692 17.5V20.7812H1.91411L6.92731 8.75H28.0728L33.086 20.7812H25.7032V17.5C25.7032 17.4248 25.6878 17.3504 25.6577 17.2814C25.6277 17.2124 25.5838 17.1504 25.5287 17.0991L17.8725 9.98977C17.7713 9.89567 17.6382 9.84336 17.5 9.84336C17.3619 9.84336 17.2288 9.89567 17.1276 9.98977L9.47138 17.0991Z" fill="#151422"/>
</svg>
