<svg width="35" height="35" viewBox="0 0 35 35" fill="none" xmlns="http://www.w3.org/2000/svg">
<path d="M33.907 6.5625H14.7664C14.6863 6.56253 14.6071 6.58018 14.5345 6.6142C14.4619 6.64822 14.3977 6.69778 14.3464 6.75937L11.612 10.0406C11.5455 10.1205 11.5032 10.2176 11.4899 10.3207C11.4766 10.4237 11.4929 10.5284 11.537 10.6226C11.5811 10.7167 11.651 10.7963 11.7387 10.852C11.8264 10.9078 11.9281 10.9375 12.032 10.9375H13.957L0.66744 27.5488C0.591672 27.6431 0.549307 27.7599 0.546977 27.8808C0.544646 28.0018 0.582481 28.1201 0.65456 28.2172C0.726639 28.3144 0.828894 28.3849 0.94532 28.4177C1.06175 28.4505 1.18577 28.4439 1.29799 28.3987L3.69713 27.4389L4.53603 28.2773C4.6117 28.3531 4.70795 28.405 4.81285 28.4265C4.91775 28.4481 5.02667 28.4384 5.12611 28.3987L7.52525 27.4389L8.36416 28.2773C8.43982 28.3531 8.53608 28.405 8.64097 28.4265C8.74587 28.4481 8.8548 28.4384 8.95424 28.3987L11.3534 27.4389L12.1923 28.2773C12.2679 28.3531 12.3642 28.405 12.4691 28.4265C12.574 28.4481 12.6829 28.4384 12.7824 28.3987L15.1815 27.4389L16.0204 28.2773C16.0748 28.3317 16.14 28.374 16.2118 28.4015C16.2837 28.4289 16.3605 28.441 16.4373 28.4367C16.5141 28.4325 16.5891 28.4121 16.6575 28.3769C16.7259 28.3417 16.7861 28.2925 16.8342 28.2324L18.4201 26.25H33.907C34.0521 26.25 34.1912 26.1924 34.2937 26.0898C34.3963 25.9873 34.4539 25.8482 34.4539 25.7031V7.10938C34.4539 6.96433 34.3963 6.82524 34.2937 6.72268C34.1912 6.62012 34.0521 6.5625 33.907 6.5625ZM4.87728 27.0703L4.21556 26.4086C4.1399 26.3328 4.04365 26.2809 3.93875 26.2593C3.83385 26.2377 3.72493 26.2474 3.62549 26.2872L2.81721 26.6109L15.357 10.9375H17.7852L4.87728 27.0703ZM8.70541 27.0703L8.04369 26.4086C7.96803 26.3328 7.87177 26.2809 7.76688 26.2593C7.66198 26.2377 7.55305 26.2474 7.45361 26.2872L6.64588 26.6104L19.1852 10.9375H21.6133L8.70541 27.0703ZM12.5335 27.0703L11.8718 26.4086C11.7962 26.3328 11.6999 26.2809 11.595 26.2593C11.4901 26.2377 11.3812 26.2474 11.2817 26.2872L10.474 26.6104L23.0133 10.9375H25.4414L12.5335 27.0703ZM16.3617 27.0703L15.6999 26.4086C15.6243 26.3328 15.528 26.2809 15.4231 26.2593C15.3182 26.2377 15.2093 26.2474 15.1099 26.2872L14.3021 26.6104L26.8414 10.9375H29.2695L16.3617 27.0703ZM25.1609 17.8227L25.9314 16.8585L31.1727 22.1014V22.9688H30.3053L25.1609 17.8227ZM28.7588 22.9688H21.0478L24.4756 18.6834L28.7588 22.9688ZM26.6188 16.001L30.6695 10.9375H31.1727V20.5548L26.6188 16.001ZM33.3602 25.1563H19.2951L20.1701 24.0625H31.7195C31.8646 24.0625 32.0037 24.0049 32.1062 23.9023C32.2088 23.7998 32.2664 23.6607 32.2664 23.5156V10.9375H33.3602V25.1563ZM33.3602 9.84375H13.1996L15.0224 7.65625H33.3602V9.84375Z" fill="#151422"/>
</svg>
