<svg width="65" height="65" viewBox="0 0 65 65" fill="none" xmlns="http://www.w3.org/2000/svg">
<path d="M62.9688 23.3594H53.8282V2.03125C53.8282 1.76189 53.7212 1.50356 53.5307 1.31309C53.3403 1.12263 53.0819 1.01563 52.8126 1.01562H12.1876C11.9182 1.01563 11.6599 1.12263 11.4694 1.31309C11.2789 1.50356 11.1719 1.76189 11.1719 2.03125V23.3594H2.03131C1.76195 23.3594 1.50362 23.4664 1.31316 23.6568C1.12269 23.8473 1.01569 24.1056 1.01569 24.375V46.7187C1.00985 48.7848 1.41394 50.8314 2.20455 52.7402C2.99515 54.649 4.15657 56.382 5.62155 57.8388L11.4695 63.6868C11.66 63.8772 11.9183 63.9841 12.1876 63.9841C12.4569 63.9841 12.7152 63.8772 12.9056 63.6868L18.7536 57.8388C20.3295 56.2698 21.5533 54.3833 22.3438 52.3047C23.1341 54.384 24.3579 56.2712 25.934 57.8409L31.782 63.6888C31.9725 63.8792 32.2308 63.9862 32.5001 63.9862C32.7694 63.9862 33.0277 63.8792 33.2181 63.6888L39.0661 57.8409C40.6422 56.2712 41.8661 54.384 42.6563 52.3047C43.4466 54.384 44.6704 56.2712 46.2465 57.8409L52.0945 63.6888C52.285 63.8792 52.5433 63.9862 52.8126 63.9862C53.0819 63.9862 53.3402 63.8792 53.5306 63.6888L59.3786 57.8409C60.8438 56.3838 62.0054 54.6505 62.796 52.7413C63.5866 50.8322 63.9905 48.7851 63.9844 46.7187V24.375C63.9844 24.1056 63.8774 23.8473 63.687 23.6568C63.4965 23.4664 63.2382 23.3594 62.9688 23.3594ZM21.3282 46.7187C21.333 48.5179 20.981 50.3001 20.2925 51.9623C19.6041 53.6246 18.5929 55.1338 17.3175 56.4027L12.1876 61.5326L7.05764 56.4027C5.7822 55.1338 4.77102 53.6246 4.0826 51.9623C3.39417 50.3001 3.04216 48.5179 3.04694 46.7187V25.3906H11.2217C11.4516 29.2031 13.0728 32.7986 15.7778 35.4951L21.3282 41.0455V46.7187ZM17.2139 34.059C15.9384 32.7901 14.9273 31.2808 14.2388 29.6186C13.5504 27.9564 13.1984 26.1741 13.2032 24.375V3.04687H31.4844V24.375C31.4892 26.1741 31.1372 27.9564 30.4488 29.6186C29.7604 31.2808 28.7492 32.7901 27.4737 34.059L22.3438 39.1889L17.2139 34.059ZM41.6407 46.7187C41.6455 48.5179 41.2935 50.3001 40.605 51.9623C39.9166 53.6246 38.9054 55.1338 37.63 56.4027L32.5001 61.5326L27.3701 56.4027C26.0947 55.1338 25.0835 53.6246 24.3951 51.9623C23.7067 50.3001 23.3547 48.5179 23.3594 46.7187V41.0455L28.9098 35.4951C30.4857 33.926 31.7096 32.0395 32.5001 29.9609C33.2903 32.0402 34.5142 33.9275 36.0903 35.4971L41.6407 41.0455V46.7187ZM37.5264 34.059C36.2509 32.7901 35.2398 31.2808 34.5513 29.6186C33.8629 27.9564 33.5109 26.1741 33.5157 24.375V3.04687H51.7969V24.375C51.8017 26.1741 51.4497 27.9564 50.7613 29.6186C50.0729 31.2808 49.0617 32.7901 47.7862 34.059L42.6563 39.1889L37.5264 34.059ZM61.9532 46.7187C61.958 48.5179 61.606 50.3001 60.9175 51.9623C60.2291 53.6246 59.2179 55.1338 57.9425 56.4027L52.8126 61.5326L47.6826 56.4027C46.4072 55.1338 45.396 53.6246 44.7076 51.9623C44.0192 50.3001 43.6672 48.5179 43.6719 46.7187V41.0455L49.2223 35.4951C51.9273 32.7986 53.5485 29.2031 53.7784 25.3906H61.9532V46.7187Z" fill="#151422"/>
</svg>
