<svg width="35" height="35" viewBox="0 0 35 35" fill="none" xmlns="http://www.w3.org/2000/svg">
<path d="M34.3867 18.3334L27.2773 5.20844C27.2304 5.12181 27.161 5.04945 27.0764 4.99901C26.9918 4.94857 26.8951 4.92192 26.7966 4.92188H8.20288C8.10438 4.92192 8.00771 4.94857 7.9231 4.99901C7.83848 5.04945 7.76907 5.12181 7.72218 5.20844L0.612803 18.3334C0.567726 18.4167 0.545048 18.5103 0.54699 18.605C0.548932 18.6996 0.575429 18.7922 0.623884 18.8736C0.67234 18.9549 0.741094 19.0223 0.823416 19.0691C0.905738 19.1159 0.998805 19.1406 1.09351 19.1406H2.73413V30.0781H3.82788V19.1406H19.1404V30.0781H20.2341V19.1406H31.1716V30.0781H32.2654V19.1406H33.906C34.0007 19.1406 34.0938 19.1159 34.1761 19.0691C34.2584 19.0223 34.3272 18.9549 34.3756 18.8736C34.4241 18.7922 34.4506 18.6996 34.4525 18.605C34.4545 18.5103 34.4318 18.4167 34.3867 18.3334ZM19.3619 18.0469H2.01171L8.53101 6.01562H25.879L19.3619 18.0469ZM22.7831 18.0469L26.7966 10.4655L30.8101 18.0469H22.7831ZM32.0466 18.0469L27.2801 9.04094C27.229 8.95876 27.1578 8.89097 27.0732 8.84396C26.9886 8.79695 26.8934 8.77229 26.7966 8.77229C26.6999 8.77229 26.6047 8.79695 26.5201 8.84396C26.4355 8.89097 26.3643 8.95876 26.3132 9.04094L21.5466 18.0469H20.606L26.7966 6.61719L32.9878 18.0469H32.0466Z" fill="#151422"/>
<path d="M22.4219 9.29742V8.20367H21.0153L21.467 7.37023L20.5078 6.84961L19.7723 8.20367H16.6403L17.092 7.37023L16.1328 6.84961L15.3973 8.20367H12.8122L13.2639 7.37023L12.3047 6.84961L11.5691 8.20367H8.75V9.29742H10.9769L9.7918 11.4849H7.10938V12.5787H9.19953L8.01445 14.7662H5.46875V15.8599H7.42219L6.97047 16.6934L7.93187 17.214L8.66523 15.8599H11.2503L10.7986 16.6934L11.76 17.214L12.4934 15.8599H15.6253L15.1736 16.6934L16.135 17.214L16.8684 15.8599H19.1406V14.7662H17.4606L18.6484 12.5787H20.7812V11.4849H19.238L20.423 9.29742H22.4219ZM12.2199 9.29742H14.805L13.6199 11.4849H11.0348L12.2199 9.29742ZM11.8426 14.7662H9.2575L10.4453 12.5787H13.0304L11.8426 14.7662ZM16.2176 14.7662H13.0856L14.2734 12.5787H17.4054L16.2176 14.7662ZM17.9949 11.4849H14.863L16.048 9.29742H19.18L17.9949 11.4849Z" fill="#151422"/>
</svg>
