<svg width="65" height="65" viewBox="0 0 65 65" fill="none" xmlns="http://www.w3.org/2000/svg">
<path d="M39.5144 30.0381C39.4325 29.8632 39.3024 29.7153 39.1395 29.6117C38.9765 29.5081 38.7873 29.4531 38.5942 29.4531H21.3286C21.1798 29.4531 21.0328 29.4857 20.898 29.5487C20.7633 29.6117 20.644 29.7035 20.5486 29.8177L10.3923 42.0052C10.2685 42.1535 10.1896 42.334 10.1647 42.5256C10.1398 42.7171 10.1701 42.9118 10.252 43.0868C10.3339 43.2617 10.464 43.4097 10.627 43.5133C10.79 43.617 10.9792 43.672 11.1723 43.6719H28.438C28.5868 43.6719 28.7337 43.6393 28.8685 43.5763C29.0033 43.5133 29.1226 43.4215 29.218 43.3073L39.3742 31.1198C39.498 30.9715 39.577 30.7909 39.6018 30.5994C39.6266 30.4078 39.5963 30.2131 39.5144 30.0381ZM21.8039 31.4844H27.137L25.512 33.5156H20.1098L21.8039 31.4844ZM18.4188 35.5469H23.887L22.262 37.5781H16.7258L18.4188 35.5469ZM19.012 41.6406H13.3407L15.0317 39.6094H20.6349L19.012 41.6406ZM27.9627 41.6406H21.614L23.239 39.6094H29.6567L27.9627 41.6406ZM31.3477 37.5781H24.864L26.489 35.5469H33.0408L31.3477 37.5781ZM34.7348 33.5156H28.114L29.739 31.4844H36.4259L34.7348 33.5156Z" fill="#151422"/>
<path d="M60.9379 60.9375V47.7344H62.9691C63.1577 47.7344 63.3426 47.6819 63.5031 47.5827C63.6635 47.4835 63.7932 47.3417 63.8775 47.173C63.9619 47.0042 63.9976 46.8154 63.9807 46.6275C63.9637 46.4397 63.8948 46.2603 63.7816 46.1094L48.5473 25.7969C48.4527 25.6707 48.33 25.5684 48.189 25.4978C48.0479 25.4273 47.8924 25.3906 47.7348 25.3906H18.2816C18.1293 25.3906 17.9789 25.4248 17.8416 25.4907C17.7043 25.5566 17.5836 25.6526 17.4884 25.7715L1.23843 46.084C1.11882 46.2334 1.04385 46.4135 1.02217 46.6037C1.00048 46.7938 1.03296 46.9862 1.11586 47.1587C1.19876 47.3312 1.32871 47.4767 1.49073 47.5786C1.65275 47.6804 1.84026 47.7344 2.03163 47.7344H4.06288V60.9375H6.09413V47.7344H30.4691V60.9375H32.5004V47.7344H58.9066V60.9375H60.9379ZM30.9962 45.7031H4.14515L18.7701 27.4219H45.6212L30.9962 45.7031ZM33.5983 45.7031L47.7094 28.0648L60.9379 45.7031H33.5983Z" fill="#151422"/>
<path d="M6.5 19.4838L3.56992 22.4159L5.00602 23.852L7.93711 20.9219C8.88576 21.6332 9.99819 22.0942 11.1719 22.2625V26.4062H13.2031V22.2625C14.3768 22.0942 15.4892 21.6332 16.4379 20.9219L19.369 23.854L20.8051 22.4179L17.875 19.4838C18.5861 18.5354 19.0471 17.4233 19.2156 16.25H23.3594V14.2188H19.2156C19.0471 13.0454 18.5861 11.9334 17.875 10.985L20.8061 8.05289L19.369 6.6168L16.4379 9.54687C15.4892 8.83559 14.3768 8.37455 13.2031 8.20625V4.0625H11.1719V8.20625C9.99819 8.37455 8.88576 8.83559 7.93711 9.54687L5.00602 6.6168L3.56992 8.05289L6.5 10.985C5.78891 11.9334 5.32788 13.0454 5.15937 14.2188H1.01562V16.25H5.15937C5.32788 17.4233 5.78891 18.5354 6.5 19.4838ZM12.1875 10.1562C13.1919 10.1562 14.1737 10.4541 15.0088 11.0121C15.8438 11.5701 16.4947 12.3632 16.8791 13.2911C17.2634 14.219 17.364 15.24 17.1681 16.2251C16.9721 17.2101 16.4885 18.115 15.7783 18.8252C15.0681 19.5353 14.1633 20.019 13.1782 20.2149C12.1931 20.4109 11.1721 20.3103 10.2442 19.926C9.31628 19.5416 8.52318 18.8907 7.96519 18.0556C7.4072 17.2205 7.10938 16.2387 7.10938 15.2344C7.11099 13.8881 7.64652 12.5974 8.5985 11.6454C9.55049 10.6934 10.8412 10.1579 12.1875 10.1562Z" fill="#151422"/>
</svg>
