<svg width="28" height="29" viewBox="0 0 28 29" fill="none" xmlns="http://www.w3.org/2000/svg">
<path d="M21.623 28.298H0.64843C0.548976 28.298 0.453595 28.2591 0.38327 28.1899C0.312945 28.1207 0.273438 28.0268 0.273438 27.929V7.24795C0.273438 7.15007 0.312945 7.0562 0.38327 6.987C0.453595 6.91779 0.548976 6.87891 0.64843 6.87891H21.623C21.7225 6.87891 21.8179 6.91779 21.8882 6.987C21.9585 7.0562 21.998 7.15007 21.998 7.24795V27.929C21.998 28.0268 21.9585 28.1207 21.8882 28.1899C21.8179 28.2591 21.7225 28.298 21.623 28.298ZM1.02342 27.5599H21.248V7.61453H1.02342V27.5599Z" fill="#151422"/>
<path d="M27.508 22.1287H6.53343C6.43397 22.1287 6.33859 22.0898 6.26827 22.0206C6.19795 21.9514 6.15844 21.8575 6.15844 21.7596V14.6421C6.15844 14.5442 6.19795 14.4503 6.26827 14.3811C6.33859 14.3119 6.43397 14.273 6.53343 14.273H11.8733C11.9728 14.273 12.0682 14.3119 12.1385 14.3811C12.2088 14.4503 12.2483 14.5442 12.2483 14.6421C12.2483 14.7399 12.2088 14.8338 12.1385 14.903C12.0682 14.9722 11.9728 15.0111 11.8733 15.0111H6.90842V21.3906H27.123V1.43535H6.89842V7.2465C6.89842 7.34437 6.85891 7.43824 6.78859 7.50745C6.71826 7.57666 6.62288 7.61554 6.52343 7.61554C6.42398 7.61554 6.32859 7.57666 6.25827 7.50745C6.18794 7.43824 6.14844 7.34437 6.14844 7.2465V1.06631C6.14844 0.96843 6.18794 0.874563 6.25827 0.805355C6.32859 0.736146 6.42398 0.697266 6.52343 0.697266H27.498C27.5975 0.697266 27.6929 0.736146 27.7632 0.805355C27.8335 0.874563 27.873 0.96843 27.873 1.06631V21.7498C27.8751 21.8475 27.8379 21.942 27.7696 22.013C27.7012 22.0839 27.6073 22.1254 27.508 22.1287Z" fill="#151422"/>
<path d="M14.4112 15.8109C14.1758 15.8114 13.9455 15.7431 13.7494 15.6148C13.5534 15.4864 13.4005 15.3036 13.3101 15.0897C13.2196 14.8758 13.1957 14.6402 13.2413 14.4129C13.2869 14.1856 13.4001 13.9766 13.5664 13.8126C13.7327 13.6486 13.9448 13.5368 14.1757 13.4914C14.4066 13.446 14.6459 13.4691 14.8635 13.5577C15.0811 13.6462 15.2671 13.7963 15.398 13.989C15.5289 14.1816 15.5987 14.4081 15.5987 14.6398C15.5987 14.95 15.4737 15.2475 15.2511 15.4671C15.0284 15.6866 14.7264 15.8103 14.4112 15.8109ZM14.4112 14.2093C14.324 14.2088 14.2386 14.2338 14.1658 14.2812C14.0931 14.3286 14.0363 14.3962 14.0027 14.4755C13.9691 14.5547 13.9602 14.6419 13.9771 14.7262C13.994 14.8104 14.0359 14.8878 14.0976 14.9485C14.1593 15.0092 14.2379 15.0505 14.3235 15.0671C14.4091 15.0837 14.4978 15.0749 14.5783 15.0419C14.6588 15.0088 14.7275 14.9529 14.7756 14.8813C14.8238 14.8097 14.8492 14.7257 14.8487 14.6398C14.8481 14.5258 14.8018 14.4167 14.7199 14.3361C14.638 14.2555 14.5271 14.2099 14.4112 14.2093Z" fill="#151422"/>
</svg>
