<svg width="50" height="50" viewBox="0 0 50 50" fill="none" xmlns="http://www.w3.org/2000/svg">
<path d="M39.7222 27.6856C26.7285 29.8224 24.4188 32.5367 22.6881 48.3604C22.6305 48.8801 21.8797 48.8801 21.8219 48.3604C20.0875 32.5367 17.7772 29.8801 4.78299 27.6856C4.26323 27.6279 4.26314 26.8771 4.78289 26.8193C17.7766 24.6826 20.0863 22.026 21.817 6.20232C21.8747 5.68256 22.6254 5.68256 22.6832 6.20232C24.4176 22.026 26.7279 24.6248 39.7221 26.8193C40.1841 26.8771 40.1842 27.5701 39.7222 27.6856Z" fill="#151422"/>
<path d="M45.2683 9.43617C41.2259 10.2447 40.071 11.5729 39.3785 16.3085C39.3208 16.8283 38.5701 16.8283 38.5123 16.3085C37.8187 11.5729 36.6635 10.2447 32.6209 9.37842C32.1589 9.26292 32.1588 8.62766 32.6208 8.51216C36.6055 7.70365 37.8181 6.37538 38.5106 1.63982C38.5683 1.12006 39.319 1.12006 39.3768 1.63982C40.0704 6.37538 41.2256 7.70365 45.2682 8.56991C45.7302 8.68541 45.7303 9.37842 45.2683 9.43617Z" fill="#151422"/>
</svg>
