<svg width="33" height="30" viewBox="0 0 33 30" fill="none" xmlns="http://www.w3.org/2000/svg">
<path d="M10.9219 17.4082L10.9232 17.2416C10.9351 15.8237 12.0573 14.5219 13.5328 14.2133L13.732 14.1719V17.4081H10.9219V17.4082Z" fill="#FF474D"/>
<path d="M13.7228 18.2344H10.9141V21.0432H13.7228V18.2344Z" fill="#FF474D"/>
<path d="M17.349 17.4082L17.3478 17.2416C17.336 15.8237 16.2132 14.5219 14.7379 14.2133L14.5391 14.1719V17.4081H17.349V17.4082Z" fill="#FF474D"/>
<path d="M17.3478 18.2344H14.5391V21.0432H17.3478V18.2344Z" fill="#FF474D"/>
<path d="M4.29688 12.6715L6.91851 10.0078V11.9594L4.29688 14.5865V12.6715Z" fill="#FF474D"/>
<path d="M2.80878 12.6747L0 10.0078H6.91778L4.29614 12.6715L2.80878 12.6747Z" fill="#FF474D"/>
<path d="M0 10.0078L2.80878 12.6747V27.002L0 29.9991V10.0078Z" fill="#FF474D"/>
<path d="M4.29688 14.5879L14.2108 4.49805L14.2103 8.79453L4.29688 18.6972V14.5879Z" fill="#FF474D"/>
<path d="M14.2031 8.77587L14.2036 4.49805L32.935 23.4009L30.8777 25.4509L14.2031 8.77587Z" fill="#FF474D"/>
<path d="M0.015625 8.9246L0.0241118 8.75102C0.266746 3.84524 4.56136 0.00195312 9.80174 0.00195312H29.2357L26.4264 2.8109H9.80174C6.21908 2.8109 3.11116 5.48463 2.87361 8.77121L2.86293 8.92443H0.015625V8.9246Z" fill="#FF474D"/>
<path d="M26.4375 15.6054V2.80895L29.2468 0V18.5172L26.4375 15.6054Z" fill="#FF474D"/>
<path d="M26.1103 22.0117C25.3435 25.0131 22.7913 27.1678 19.919 27.1678L2.79962 27.0618L0 29.9463L5.38834 29.7129H5.76892H9.12049H19.919C23.6144 29.7129 26.9035 27.5881 28.4134 24.0721L26.1103 22.0117Z" fill="#FF474D"/>
</svg>
