<svg width="142" height="33" viewBox="0 0 142 33" fill="none" xmlns="http://www.w3.org/2000/svg">
<path d="M11.2578 18.9102L11.2592 18.7436C11.271 17.3256 12.3933 16.0239 13.8688 15.7152L14.068 15.6738V18.91H11.2578V18.9102Z" fill="#F9E400"/>
<path d="M14.0588 19.7363H11.25V22.5451H14.0588V19.7363Z" fill="#F9E400"/>
<path d="M17.685 18.9102L17.6838 18.7436C17.6719 17.3256 16.5492 16.0239 15.0739 15.7152L14.875 15.6738V18.91H17.685V18.9102Z" fill="#F9E400"/>
<path d="M17.6838 19.7363H14.875V22.5451H17.6838V19.7363Z" fill="#F9E400"/>
<path d="M4.63281 14.1735L7.25445 11.5098V13.4614L4.63281 16.0884V14.1735Z" fill="#F9E400"/>
<path d="M3.14472 14.1767L0.335938 11.5098H7.25372L4.63208 14.1735L3.14472 14.1767Z" fill="#F9E400"/>
<path d="M0.335938 11.5098L3.14472 14.1767V28.504L0.335938 31.5011V11.5098Z" fill="#F9E400"/>
<path d="M4.63281 16.0898L14.5467 6L14.5462 10.2965L4.63281 20.1992V16.0898Z" fill="#F9E400"/>
<path d="M14.5391 10.2778L14.5396 6L33.2709 24.9029L31.2136 26.9529L14.5391 10.2778Z" fill="#F9E400"/>
<path d="M0.351562 10.4266L0.360049 10.253C0.602683 5.34719 4.8973 1.50391 10.1377 1.50391H29.5716L26.7623 4.31286H10.1377C6.55501 4.31286 3.44709 6.98658 3.20955 10.2732L3.19886 10.4264H0.351562V10.4266Z" fill="#F9E400"/>
<path d="M26.7734 17.1074V4.3109L29.5827 1.50195V20.0192L26.7734 17.1074Z" fill="#F9E400"/>
<path d="M26.4462 23.5137C25.6795 26.515 23.1272 28.6697 20.255 28.6697L3.13556 28.5638L0.335938 31.4483L5.72427 31.2148H6.10485H9.45642H20.255C23.9503 31.2148 27.2394 29.09 28.7494 25.574L26.4462 23.5137Z" fill="#F9E400"/>
<path d="M48.7934 22.952L49.1534 19.082H59.5634L59.8934 22.952H48.7934ZM54.2834 13.712L51.3434 20.492L51.5834 21.602L48.9734 27.002H43.2434L54.2834 4.68195L65.3534 27.002H59.5934L57.0734 21.812L57.2534 20.522L54.2834 13.712ZM67.604 3.60195H72.164V27.002H67.604V3.60195ZM79.9999 20.102C79.9999 20.842 80.1599 21.482 80.4799 22.022C80.7999 22.542 81.2399 22.952 81.7999 23.252C82.3799 23.552 82.9999 23.702 83.6599 23.702C84.2199 23.702 84.7499 23.622 85.2499 23.462C85.7699 23.282 86.2399 23.042 86.6599 22.742C87.0999 22.442 87.4599 22.072 87.7399 21.632V26.042C87.2599 26.422 86.6599 26.732 85.9399 26.972C85.2199 27.192 84.3399 27.302 83.2999 27.302C81.7799 27.302 80.4099 27.002 79.1899 26.402C77.9899 25.802 77.0399 24.962 76.3399 23.882C75.6599 22.802 75.3199 21.542 75.3199 20.102C75.3199 18.642 75.6599 17.382 76.3399 16.322C77.0399 15.242 77.9899 14.402 79.1899 13.802C80.4099 13.202 81.7799 12.902 83.2999 12.902C84.3399 12.902 85.2199 13.022 85.9399 13.262C86.6599 13.482 87.2599 13.762 87.7399 14.102V18.542C87.4599 18.102 87.0899 17.732 86.6299 17.432C86.1899 17.132 85.7099 16.902 85.1899 16.742C84.6699 16.582 84.1599 16.502 83.6599 16.502C82.9999 16.502 82.3799 16.662 81.7999 16.982C81.2399 17.302 80.7999 17.732 80.4799 18.272C80.1599 18.812 79.9999 19.422 79.9999 20.102ZM90.7041 20.102C90.7041 18.642 91.0441 17.372 91.7241 16.292C92.4041 15.212 93.3441 14.372 94.5441 13.772C95.7441 13.172 97.0941 12.872 98.5941 12.872C100.094 12.872 101.434 13.172 102.614 13.772C103.814 14.372 104.754 15.212 105.434 16.292C106.134 17.372 106.484 18.642 106.484 20.102C106.484 21.542 106.134 22.802 105.434 23.882C104.754 24.962 103.814 25.802 102.614 26.402C101.434 27.002 100.094 27.302 98.5941 27.302C97.0941 27.302 95.7441 27.002 94.5441 26.402C93.3441 25.802 92.4041 24.962 91.7241 23.882C91.0441 22.802 90.7041 21.542 90.7041 20.102ZM95.3541 20.102C95.3541 20.822 95.5041 21.442 95.8041 21.962C96.1041 22.462 96.4941 22.852 96.9741 23.132C97.4541 23.412 97.9941 23.552 98.5941 23.552C99.1741 23.552 99.7041 23.412 100.184 23.132C100.684 22.852 101.074 22.462 101.354 21.962C101.654 21.442 101.804 20.822 101.804 20.102C101.804 19.382 101.654 18.762 101.354 18.242C101.074 17.722 100.684 17.322 100.184 17.042C99.7041 16.762 99.1741 16.622 98.5941 16.622C97.9941 16.622 97.4541 16.762 96.9741 17.042C96.4941 17.322 96.1041 17.722 95.8041 18.242C95.5041 18.762 95.3541 19.382 95.3541 20.102ZM107.41 13.202H112.24L115.42 20.852L118.57 13.202H123.4L115.42 28.622L107.41 13.202ZM132.171 27.302C130.571 27.302 129.181 27.012 128.001 26.432C126.841 25.832 125.941 24.992 125.301 23.912C124.661 22.832 124.341 21.562 124.341 20.102C124.341 18.622 124.651 17.342 125.271 16.262C125.891 15.182 126.781 14.352 127.941 13.772C129.121 13.192 130.511 12.902 132.111 12.902C133.711 12.902 135.061 13.182 136.161 13.742C137.261 14.282 138.101 15.072 138.681 16.112C139.261 17.152 139.551 18.412 139.551 19.892C139.551 20.112 139.551 20.332 139.551 20.552C139.551 20.752 139.531 20.922 139.491 21.062H126.891V18.542H135.411L134.331 19.922C134.431 19.782 134.511 19.612 134.571 19.412C134.651 19.192 134.691 19.012 134.691 18.872C134.691 18.272 134.581 17.752 134.361 17.312C134.141 16.872 133.831 16.532 133.431 16.292C133.031 16.052 132.561 15.932 132.021 15.932C131.341 15.932 130.771 16.082 130.311 16.382C129.851 16.682 129.501 17.142 129.261 17.762C129.041 18.362 128.921 19.122 128.901 20.042C128.901 20.882 129.021 21.602 129.261 22.202C129.501 22.802 129.861 23.262 130.341 23.582C130.821 23.882 131.411 24.032 132.111 24.032C132.911 24.032 133.591 23.882 134.151 23.582C134.731 23.282 135.191 22.832 135.531 22.232L139.581 23.222C138.861 24.582 137.881 25.602 136.641 26.282C135.421 26.962 133.931 27.302 132.171 27.302Z" fill="white"/>
</svg>
