<svg width="141" height="34" viewBox="0 0 141 34" fill="none" xmlns="http://www.w3.org/2000/svg">
<path d="M10.9219 18.9239L10.9232 18.7572C10.9351 17.3393 12.0573 16.0375 13.5328 15.7289L13.732 15.6875V18.9237H10.9219V18.9239Z" fill="#151422"/>
<path d="M13.7228 19.75H10.9141V22.5588H13.7228V19.75Z" fill="#151422"/>
<path d="M17.349 18.9239L17.3478 18.7572C17.336 17.3393 16.2132 16.0375 14.7379 15.7289L14.5391 15.6875V18.9237H17.349V18.9239Z" fill="#151422"/>
<path d="M17.3478 19.75H14.5391V22.5588H17.3478V19.75Z" fill="#151422"/>
<path d="M4.29688 14.1871L6.91851 11.5234V13.475L4.29688 16.1021V14.1871Z" fill="#151422"/>
<path d="M2.80878 14.1904L0 11.5234H6.91778L4.29614 14.1871L2.80878 14.1904Z" fill="#151422"/>
<path d="M0 11.5234L2.80878 14.1904V28.5176L0 31.5148V11.5234Z" fill="#151422"/>
<path d="M4.29688 16.1035L14.2108 6.01367L14.2103 10.3102L4.29688 20.2128V16.1035Z" fill="#151422"/>
<path d="M14.2031 10.2915L14.2036 6.01367L32.935 24.9165L30.8777 26.9665L14.2031 10.2915Z" fill="#151422"/>
<path d="M0.015625 10.4402L0.0241118 10.2666C0.266746 5.36086 4.56136 1.51758 9.80174 1.51758H29.2357L26.4264 4.32653H9.80174C6.21908 4.32653 3.11116 7.00025 2.87361 10.2868L2.86293 10.4401H0.015625V10.4402Z" fill="#151422"/>
<path d="M26.4375 17.121V4.32458L29.2468 1.51562V20.0328L26.4375 17.121Z" fill="#151422"/>
<path d="M26.1103 23.5273C25.3435 26.5287 22.7913 28.6834 19.9191 28.6834L2.79962 28.5775L0 31.4619L5.38834 31.2285H5.76892H9.12049H19.9191C23.6144 31.2285 26.9035 29.1037 28.4134 25.5877L26.1103 23.5273Z" fill="#151422"/>
<path d="M48.4575 22.9656L48.8175 19.0956H59.2275L59.5575 22.9656H48.4575ZM53.9475 13.7256L51.0075 20.5056L51.2475 21.6156L48.6375 27.0156H42.9075L53.9475 4.69562L65.0175 27.0156H59.2575L56.7375 21.8256L56.9175 20.5356L53.9475 13.7256ZM67.268 3.61562H71.828V27.0156H67.268V3.61562ZM79.664 20.1156C79.664 20.8556 79.824 21.4956 80.144 22.0356C80.464 22.5556 80.904 22.9656 81.464 23.2656C82.044 23.5656 82.664 23.7156 83.324 23.7156C83.884 23.7156 84.414 23.6356 84.914 23.4756C85.434 23.2956 85.904 23.0556 86.324 22.7556C86.764 22.4556 87.124 22.0856 87.404 21.6456V26.0556C86.924 26.4356 86.324 26.7456 85.604 26.9856C84.884 27.2056 84.004 27.3156 82.964 27.3156C81.444 27.3156 80.074 27.0156 78.854 26.4156C77.654 25.8156 76.704 24.9756 76.004 23.8956C75.324 22.8156 74.984 21.5556 74.984 20.1156C74.984 18.6556 75.324 17.3956 76.004 16.3356C76.704 15.2556 77.654 14.4156 78.854 13.8156C80.074 13.2156 81.444 12.9156 82.964 12.9156C84.004 12.9156 84.884 13.0356 85.604 13.2756C86.324 13.4956 86.924 13.7756 87.404 14.1156V18.5556C87.124 18.1156 86.754 17.7456 86.294 17.4456C85.854 17.1456 85.374 16.9156 84.854 16.7556C84.334 16.5956 83.824 16.5156 83.324 16.5156C82.664 16.5156 82.044 16.6756 81.464 16.9956C80.904 17.3156 80.464 17.7456 80.144 18.2856C79.824 18.8256 79.664 19.4356 79.664 20.1156ZM90.3682 20.1156C90.3682 18.6556 90.7082 17.3856 91.3882 16.3056C92.0682 15.2256 93.0082 14.3856 94.2082 13.7856C95.4082 13.1856 96.7582 12.8856 98.2582 12.8856C99.7582 12.8856 101.098 13.1856 102.278 13.7856C103.478 14.3856 104.418 15.2256 105.098 16.3056C105.798 17.3856 106.148 18.6556 106.148 20.1156C106.148 21.5556 105.798 22.8156 105.098 23.8956C104.418 24.9756 103.478 25.8156 102.278 26.4156C101.098 27.0156 99.7582 27.3156 98.2582 27.3156C96.7582 27.3156 95.4082 27.0156 94.2082 26.4156C93.0082 25.8156 92.0682 24.9756 91.3882 23.8956C90.7082 22.8156 90.3682 21.5556 90.3682 20.1156ZM95.0182 20.1156C95.0182 20.8356 95.1682 21.4556 95.4682 21.9756C95.7682 22.4756 96.1582 22.8656 96.6382 23.1456C97.1182 23.4256 97.6582 23.5656 98.2582 23.5656C98.8382 23.5656 99.3682 23.4256 99.8482 23.1456C100.348 22.8656 100.738 22.4756 101.018 21.9756C101.318 21.4556 101.468 20.8356 101.468 20.1156C101.468 19.3956 101.318 18.7756 101.018 18.2556C100.738 17.7356 100.348 17.3356 99.8482 17.0556C99.3682 16.7756 98.8382 16.6356 98.2582 16.6356C97.6582 16.6356 97.1182 16.7756 96.6382 17.0556C96.1582 17.3356 95.7682 17.7356 95.4682 18.2556C95.1682 18.7756 95.0182 19.3956 95.0182 20.1156ZM107.074 13.2156H111.904L115.084 20.8656L118.234 13.2156H123.064L115.084 28.6356L107.074 13.2156ZM131.835 27.3156C130.235 27.3156 128.845 27.0256 127.665 26.4456C126.505 25.8456 125.605 25.0056 124.965 23.9256C124.325 22.8456 124.005 21.5756 124.005 20.1156C124.005 18.6356 124.315 17.3556 124.935 16.2756C125.555 15.1956 126.445 14.3656 127.605 13.7856C128.785 13.2056 130.175 12.9156 131.775 12.9156C133.375 12.9156 134.725 13.1956 135.825 13.7556C136.925 14.2956 137.765 15.0856 138.345 16.1256C138.925 17.1656 139.215 18.4256 139.215 19.9056C139.215 20.1256 139.215 20.3456 139.215 20.5656C139.215 20.7656 139.195 20.9356 139.155 21.0756H126.555V18.5556H135.075L133.995 19.9356C134.095 19.7956 134.175 19.6256 134.235 19.4256C134.315 19.2056 134.355 19.0256 134.355 18.8856C134.355 18.2856 134.245 17.7656 134.025 17.3256C133.805 16.8856 133.495 16.5456 133.095 16.3056C132.695 16.0656 132.225 15.9456 131.685 15.9456C131.005 15.9456 130.435 16.0956 129.975 16.3956C129.515 16.6956 129.165 17.1556 128.925 17.7756C128.705 18.3756 128.585 19.1356 128.565 20.0556C128.565 20.8956 128.685 21.6156 128.925 22.2156C129.165 22.8156 129.525 23.2756 130.005 23.5956C130.485 23.8956 131.075 24.0456 131.775 24.0456C132.575 24.0456 133.255 23.8956 133.815 23.5956C134.395 23.2956 134.855 22.8456 135.195 22.2456L139.245 23.2356C138.525 24.5956 137.545 25.6156 136.305 26.2956C135.085 26.9756 133.595 27.3156 131.835 27.3156Z" fill="#151422"/>
</svg>
